{
	"asset":{
		"generator":"Khronos glTF Blender I/O v3.6.27",
		"version":"2.0"
	},
	"scene":0,
	"scenes":[
		{
			"name":"Scene",
			"nodes":[
				0
			]
		}
	],
	"nodes":[
		{
			"mesh":0,
			"name":"Plane.007",
			"scale":[
				0.13531315326690674,
				0.13531315326690674,
				0.13531315326690674
			],
			"translation":[
				0.1779719591140747,
				0.032816410064697266,
				1.1352903842926025
			]
		}
	],
	"materials":[
		{
			"doubleSided":true,
			"name":"sock",
			"pbrMetallicRoughness":{
				"baseColorFactor":[
					0.3148472011089325,
					0.8000000715255737,
					0.45788291096687317,
					1
				],
				"metallicFactor":0,
				"roughnessFactor":0.6548117399215698
			}
		},
		{
			"doubleSided":true,
			"name":"dark leaves",
			"pbrMetallicRoughness":{
				"baseColorFactor":[
					0.06003328040242195,
					0.2738219201564789,
					0.07490801066160202,
					1
				],
				"metallicFactor":0,
				"roughnessFactor":0.6160221099853516
			}
		}
	],
	"meshes":[
		{
			"name":"Plane.004",
			"primitives":[
				{
					"attributes":{
						"POSITION":0,
						"NORMAL":1
					},
					"indices":2,
					"material":0
				},
				{
					"attributes":{
						"POSITION":3,
						"NORMAL":4
					},
					"indices":5,
					"material":1
				}
			]
		}
	],
	"accessors":[
		{
			"bufferView":0,
			"componentType":5126,
			"count":4193,
			"max":[
				0.9960352182388306,
				0.529679536819458,
				1.0896711349487305
			],
			"min":[
				-0.8931926488876343,
				-8.648570656077936e-05,
				-0.6240020990371704
			],
			"type":"VEC3"
		},
		{
			"bufferView":1,
			"componentType":5126,
			"count":4193,
			"type":"VEC3"
		},
		{
			"bufferView":2,
			"componentType":5123,
			"count":24960,
			"type":"SCALAR"
		},
		{
			"bufferView":3,
			"componentType":5126,
			"count":1057,
			"max":[
				0.9960351586341858,
				0.525420069694519,
				-0.6023011207580566
			],
			"min":[
				0.004368409048765898,
				0.004166669212281704,
				-1.2423019409179688
			],
			"type":"VEC3"
		},
		{
			"bufferView":4,
			"componentType":5126,
			"count":1057,
			"type":"VEC3"
		},
		{
			"bufferView":5,
			"componentType":5123,
			"count":6144,
			"type":"SCALAR"
		}
	],
	"bufferViews":[
		{
			"buffer":0,
			"byteLength":50316,
			"byteOffset":0,
			"target":34962
		},
		{
			"buffer":0,
			"byteLength":50316,
			"byteOffset":50316,
			"target":34962
		},
		{
			"buffer":0,
			"byteLength":49920,
			"byteOffset":100632,
			"target":34963
		},
		{
			"buffer":0,
			"byteLength":12684,
			"byteOffset":150552,
			"target":34962
		},
		{
			"buffer":0,
			"byteLength":12684,
			"byteOffset":163236,
			"target":34962
		},
		{
			"buffer":0,
			"byteLength":12288,
			"byteOffset":175920,
			"target":34963
		}
	],
	"buffers":[
		{
			"byteLength":188208,
			"uri":"data:application/octet-stream;base64,"
		}
	]
}
