{
	"asset":{
		"generator":"Khronos glTF Blender I/O v3.6.27",
		"version":"2.0"
	},
	"scene":0,
	"scenes":[
		{
			"name":"Scene",
			"nodes":[
				0
			]
		}
	],
	"nodes":[
		{
			"mesh":0,
			"name":"water bottle stickers",
			"rotation":[
				0.45042330026626587,
				-0.5450862050056458,
				0.545086145401001,
				0.4504232704639435
			],
			"scale":[
				2.4858179092407227,
				2.4858179092407227,
				3.4249768257141113
			],
			"translation":[
				0.02828316017985344,
				0.6077796816825867,
				-0.8169475793838501
			]
		}
	],
	"materials":[
		{
			"doubleSided":true,
			"name":"stickers water.001",
			"pbrMetallicRoughness":{
				"baseColorTexture":{
					"index":0
				},
				"metallicFactor":0,
				"roughnessFactor":0.5
			}
		}
	],
	"meshes":[
		{
			"name":"Cube.093",
			"primitives":[
				{
					"attributes":{
						"POSITION":0,
						"NORMAL":1
					},
					"indices":2,
					"material":0
				}
			]
		}
	],
	"textures":[
		{
			"sampler":0,
			"source":0
		}
	],
	"images":[
		{
			"bufferView":3,
			"mimeType":"image/png",
			"name":"water bottle stickers"
		}
	],
	"accessors":[
		{
			"bufferView":0,
			"componentType":5126,
			"count":80,
			"max":[
				0.019999999552965164,
				0.019999997690320015,
				-0.009330591186881065
			],
			"min":[
				-0.019999999552965164,
				-0.019999997690320015,
				-0.05551222711801529
			],
			"type":"VEC3"
		},
		{
			"bufferView":1,
			"componentType":5126,
			"count":80,
			"type":"VEC3"
		},
		{
			"bufferView":2,
			"componentType":5123,
			"count":384,
			"type":"SCALAR"
		}
	],
	"bufferViews":[
		{
			"buffer":0,
			"byteLength":960,
			"byteOffset":0,
			"target":34962
		},
		{
			"buffer":0,
			"byteLength":960,
			"byteOffset":960,
			"target":34962
		},
		{
			"buffer":0,
			"byteLength":768,
			"byteOffset":1920,
			"target":34963
		},
		{
			"buffer":0,
			"byteLength":163428,
			"byteOffset":2688
		}
	],
	"samplers":[
		{
			"magFilter":9729,
			"minFilter":9987
		}
	],
	"buffers":[
		{
			"byteLength":166116,
			"uri":"data:application/octet-stream;base64,"
		}
	]
}
