{
	"asset":{
		"generator":"Khronos glTF Blender I/O v3.6.27",
		"version":"2.0"
	},
	"scene":0,
	"scenes":[
		{
			"name":"Scene",
			"nodes":[
				0
			]
		}
	],
	"nodes":[
		{
			"mesh":0,
			"name":"cactus",
			"rotation":[
				0.5,
				0.5,
				-0.5,
				0.5
			],
			"scale":[
				0.2351355254650116,
				0.17219507694244385,
				0.16354413330554962
			],
			"translation":[
				-0.1825726181268692,
				1.0970505475997925,
				-1.2234538793563843
			]
		}
	],
	"materials":[
		{
			"doubleSided":true,
			"name":"plant pot 2",
			"pbrMetallicRoughness":{
				"baseColorFactor":[
					0.5382142663002014,
					0.16785277426242828,
					0.11823585629463196,
					1
				],
				"metallicFactor":0,
				"roughnessFactor":0.6252301931381226
			}
		},
		{
			"doubleSided":true,
			"name":"soil",
			"pbrMetallicRoughness":{
				"baseColorFactor":[
					0.10652675479650497,
					0.04934846982359886,
					0.02865820936858654,
					1
				],
				"metallicFactor":0,
				"roughnessFactor":0.6344382762908936
			}
		},
		{
			"doubleSided":true,
			"name":"cactus",
			"pbrMetallicRoughness":{
				"baseColorFactor":[
					0.05408120155334473,
					0.11492960900068283,
					0.025308500975370407,
					1
				],
				"metallicFactor":0,
				"roughnessFactor":0.6178637146949768
			}
		},
		{
			"doubleSided":true,
			"name":"chair",
			"pbrMetallicRoughness":{
				"baseColorFactor":[
					0.6382620930671692,
					0.27894240617752075,
					0.54389888048172,
					1
				],
				"metallicFactor":0,
				"roughnessFactor":0.6510128974914551
			}
		},
		{
			"doubleSided":true,
			"name":"pillows",
			"pbrMetallicRoughness":{
				"baseColorFactor":[
					0.9258180260658264,
					0.6755127310752869,
					0.15400312840938568,
					1
				],
				"metallicFactor":0,
				"roughnessFactor":0.581031322479248
			}
		}
	],
	"meshes":[
		{
			"name":"Cube.083",
			"primitives":[
				{
					"attributes":{
						"POSITION":0,
						"NORMAL":1
					},
					"indices":2,
					"material":0
				},
				{
					"attributes":{
						"POSITION":3,
						"NORMAL":4
					},
					"indices":5,
					"material":1
				},
				{
					"attributes":{
						"POSITION":6,
						"NORMAL":7
					},
					"indices":8,
					"material":2
				},
				{
					"attributes":{
						"POSITION":9,
						"NORMAL":10
					},
					"indices":11,
					"material":3
				},
				{
					"attributes":{
						"POSITION":12,
						"NORMAL":13
					},
					"indices":14,
					"material":4
				}
			]
		}
	],
	"accessors":[
		{
			"bufferView":0,
			"componentType":5126,
			"count":921,
			"max":[
				0.22922658920288086,
				0.31309622526168823,
				0.25835713744163513
			],
			"min":[
				-0.22922660410404205,
				-0.31309619545936584,
				-0.18392911553382874
			],
			"type":"VEC3"
		},
		{
			"bufferView":1,
			"componentType":5126,
			"count":921,
			"type":"VEC3"
		},
		{
			"bufferView":2,
			"componentType":5123,
			"count":5472,
			"type":"SCALAR"
		},
		{
			"bufferView":3,
			"componentType":5126,
			"count":89,
			"max":[
				0.1571025401353836,
				0.24105304479599,
				-0.1722685694694519
			],
			"min":[
				-0.157102569937706,
				-0.24105304479599,
				-0.1732403188943863
			],
			"type":"VEC3"
		},
		{
			"bufferView":4,
			"componentType":5126,
			"count":89,
			"type":"VEC3"
		},
		{
			"bufferView":5,
			"componentType":5123,
			"count":480,
			"type":"SCALAR"
		},
		{
			"bufferView":6,
			"componentType":5126,
			"count":4226,
			"max":[
				0.1618744432926178,
				0.22104400396347046,
				-0.08954319357872009
			],
			"min":[
				-0.16187632083892822,
				-0.22104349732398987,
				-0.4948325455188751
			],
			"type":"VEC3"
		},
		{
			"bufferView":7,
			"componentType":5126,
			"count":4226,
			"type":"VEC3"
		},
		{
			"bufferView":8,
			"componentType":5123,
			"count":25344,
			"type":"SCALAR"
		},
		{
			"bufferView":9,
			"componentType":5126,
			"count":810,
			"max":[
				0.06112639605998993,
				0.07712744176387787,
				-0.4759078919887543
			],
			"min":[
				-0.05634128302335739,
				-0.08745145797729492,
				-0.5143270492553711
			],
			"type":"VEC3"
		},
		{
			"bufferView":10,
			"componentType":5126,
			"count":810,
			"type":"VEC3"
		},
		{
			"bufferView":11,
			"componentType":5123,
			"count":4800,
			"type":"SCALAR"
		},
		{
			"bufferView":12,
			"componentType":5126,
			"count":98,
			"max":[
				0.019227618351578712,
				0.026256831362843513,
				-0.48574298620224
			],
			"min":[
				-0.019228866323828697,
				-0.026256196200847626,
				-0.5118691325187683
			],
			"type":"VEC3"
		},
		{
			"bufferView":13,
			"componentType":5126,
			"count":98,
			"type":"VEC3"
		},
		{
			"bufferView":14,
			"componentType":5123,
			"count":576,
			"type":"SCALAR"
		}
	],
	"bufferViews":[
		{
			"buffer":0,
			"byteLength":11052,
			"byteOffset":0,
			"target":34962
		},
		{
			"buffer":0,
			"byteLength":11052,
			"byteOffset":11052,
			"target":34962
		},
		{
			"buffer":0,
			"byteLength":10944,
			"byteOffset":22104,
			"target":34963
		},
		{
			"buffer":0,
			"byteLength":1068,
			"byteOffset":33048,
			"target":34962
		},
		{
			"buffer":0,
			"byteLength":1068,
			"byteOffset":34116,
			"target":34962
		},
		{
			"buffer":0,
			"byteLength":960,
			"byteOffset":35184,
			"target":34963
		},
		{
			"buffer":0,
			"byteLength":50712,
			"byteOffset":36144,
			"target":34962
		},
		{
			"buffer":0,
			"byteLength":50712,
			"byteOffset":86856,
			"target":34962
		},
		{
			"buffer":0,
			"byteLength":50688,
			"byteOffset":137568,
			"target":34963
		},
		{
			"buffer":0,
			"byteLength":9720,
			"byteOffset":188256,
			"target":34962
		},
		{
			"buffer":0,
			"byteLength":9720,
			"byteOffset":197976,
			"target":34962
		},
		{
			"buffer":0,
			"byteLength":9600,
			"byteOffset":207696,
			"target":34963
		},
		{
			"buffer":0,
			"byteLength":1176,
			"byteOffset":217296,
			"target":34962
		},
		{
			"buffer":0,
			"byteLength":1176,
			"byteOffset":218472,
			"target":34962
		},
		{
			"buffer":0,
			"byteLength":1152,
			"byteOffset":219648,
			"target":34963
		}
	],
	"buffers":[
		{
			"byteLength":220800,
			"uri":"data:application/octet-stream;base64,"
		}
	]
}
