{
	"asset":{
		"generator":"Khronos glTF Blender I/O v3.6.27",
		"version":"2.0"
	},
	"scene":0,
	"scenes":[
		{
			"name":"Scene",
			"nodes":[
				0
			]
		}
	],
	"nodes":[
		{
			"mesh":0,
			"name":"window.001",
			"rotation":[
				0,
				0.7071068286895752,
				0,
				0.7071068286895752
			],
			"scale":[
				0.3542361557483673,
				0.4706432819366455,
				0.11656292527914047
			],
			"translation":[
				-0.6563981771469116,
				1.0440973043441772,
				-1.210012674331665
			]
		}
	],
	"materials":[
		{
			"doubleSided":true,
			"name":"paper",
			"pbrMetallicRoughness":{
				"baseColorFactor":[
					0.8000000715255737,
					0.6557586193084717,
					0.6983014345169067,
					1
				],
				"metallicFactor":0,
				"roughnessFactor":0.619705319404602
			}
		},
		{
			"doubleSided":true,
			"name":"dark purple",
			"pbrMetallicRoughness":{
				"baseColorFactor":[
					0.23089122772216797,
					0.1436099261045456,
					0.4969066381454468,
					1
				],
				"metallicFactor":0,
				"roughnessFactor":0.5
			}
		},
		{
			"doubleSided":true,
			"name":"plant pot 1",
			"pbrMetallicRoughness":{
				"baseColorFactor":[
					0.8000000715255737,
					0.33519113063812256,
					0.3784506022930145,
					1
				],
				"metallicFactor":0,
				"roughnessFactor":0.6565377712249756
			}
		},
		{
			"doubleSided":true,
			"name":"light blue",
			"pbrMetallicRoughness":{
				"baseColorFactor":[
					0.18150004744529724,
					0.8000000715255737,
					0.6471685171127319,
					1
				],
				"metallicFactor":0,
				"roughnessFactor":0.6235741376876831
			}
		},
		{
			"doubleSided":true,
			"name":"pillows",
			"pbrMetallicRoughness":{
				"baseColorFactor":[
					0.9258180260658264,
					0.6755127310752869,
					0.15400312840938568,
					1
				],
				"metallicFactor":0,
				"roughnessFactor":0.581031322479248
			}
		}
	],
	"meshes":[
		{
			"name":"Cube.023",
			"primitives":[
				{
					"attributes":{
						"POSITION":0,
						"NORMAL":1
					},
					"indices":2,
					"material":0
				},
				{
					"attributes":{
						"POSITION":3,
						"NORMAL":4
					},
					"indices":5,
					"material":1
				},
				{
					"attributes":{
						"POSITION":6,
						"NORMAL":7
					},
					"indices":8,
					"material":2
				},
				{
					"attributes":{
						"POSITION":9,
						"NORMAL":10
					},
					"indices":8,
					"material":3
				},
				{
					"attributes":{
						"POSITION":11,
						"NORMAL":12
					},
					"indices":8,
					"material":4
				}
			]
		}
	],
	"accessors":[
		{
			"bufferView":0,
			"componentType":5126,
			"count":4226,
			"max":[
				0.15752993524074554,
				0.15468882024288177,
				0.47873589396476746
			],
			"min":[
				-0.1575300246477127,
				0.018358800560235977,
				-0.47873589396476746
			],
			"type":"VEC3"
		},
		{
			"bufferView":1,
			"componentType":5126,
			"count":4226,
			"type":"VEC3"
		},
		{
			"bufferView":2,
			"componentType":5123,
			"count":25344,
			"type":"SCALAR"
		},
		{
			"bufferView":3,
			"componentType":5126,
			"count":5764,
			"max":[
				0.095357246696949,
				0.20941448211669922,
				0.2463892698287964
			],
			"min":[
				-0.04841906949877739,
				0.11432725936174393,
				-0.1829877495765686
			],
			"type":"VEC3"
		},
		{
			"bufferView":4,
			"componentType":5126,
			"count":5764,
			"type":"VEC3"
		},
		{
			"bufferView":5,
			"componentType":5123,
			"count":34560,
			"type":"SCALAR"
		},
		{
			"bufferView":6,
			"componentType":5126,
			"count":2882,
			"max":[
				0.02292865514755249,
				0.19822518527507782,
				0.2896559238433838
			],
			"min":[
				-0.0818968117237091,
				0.1329619139432907,
				-0.023848965764045715
			],
			"type":"VEC3"
		},
		{
			"bufferView":7,
			"componentType":5126,
			"count":2882,
			"type":"VEC3"
		},
		{
			"bufferView":8,
			"componentType":5123,
			"count":17280,
			"type":"SCALAR"
		},
		{
			"bufferView":9,
			"componentType":5126,
			"count":2882,
			"max":[
				0.05451741814613342,
				0.19404153525829315,
				0.0021477206610143185
			],
			"min":[
				-0.048676084727048874,
				0.1406366378068924,
				-0.3235040307044983
			],
			"type":"VEC3"
		},
		{
			"bufferView":10,
			"componentType":5126,
			"count":2882,
			"type":"VEC3"
		},
		{
			"bufferView":11,
			"componentType":5126,
			"count":2882,
			"max":[
				-0.03401007875800133,
				0.22082582116127014,
				0.07884296774864197
			],
			"min":[
				-0.1257844865322113,
				0.14943763613700867,
				-0.24516306817531586
			],
			"type":"VEC3"
		},
		{
			"bufferView":12,
			"componentType":5126,
			"count":2882,
			"type":"VEC3"
		}
	],
	"bufferViews":[
		{
			"buffer":0,
			"byteLength":50712,
			"byteOffset":0,
			"target":34962
		},
		{
			"buffer":0,
			"byteLength":50712,
			"byteOffset":50712,
			"target":34962
		},
		{
			"buffer":0,
			"byteLength":50688,
			"byteOffset":101424,
			"target":34963
		},
		{
			"buffer":0,
			"byteLength":69168,
			"byteOffset":152112,
			"target":34962
		},
		{
			"buffer":0,
			"byteLength":69168,
			"byteOffset":221280,
			"target":34962
		},
		{
			"buffer":0,
			"byteLength":69120,
			"byteOffset":290448,
			"target":34963
		},
		{
			"buffer":0,
			"byteLength":34584,
			"byteOffset":359568,
			"target":34962
		},
		{
			"buffer":0,
			"byteLength":34584,
			"byteOffset":394152,
			"target":34962
		},
		{
			"buffer":0,
			"byteLength":34560,
			"byteOffset":428736,
			"target":34963
		},
		{
			"buffer":0,
			"byteLength":34584,
			"byteOffset":463296,
			"target":34962
		},
		{
			"buffer":0,
			"byteLength":34584,
			"byteOffset":497880,
			"target":34962
		},
		{
			"buffer":0,
			"byteLength":34584,
			"byteOffset":532464,
			"target":34962
		},
		{
			"buffer":0,
			"byteLength":34584,
			"byteOffset":567048,
			"target":34962
		}
	],
	"buffers":[
		{
			"byteLength":601632,
			"uri":"data:application/octet-stream;base64,"
		}
	]
}
