{
	"asset":{
		"generator":"Khronos glTF Blender I/O v3.6.27",
		"version":"2.0"
	},
	"scene":0,
	"scenes":[
		{
			"name":"Scene",
			"nodes":[
				0,
				1,
				2
			]
		}
	],
	"nodes":[
		{
			"mesh":0,
			"name":"walls",
			"translation":[
				0,
				1.0131957530975342,
				0
			]
		},
		{
			"mesh":1,
			"name":"floor",
			"scale":[
				1.016191840171814,
				1,
				1
			],
			"translation":[
				-0.012673442251980305,
				-0.10216355323791504,
				0
			]
		},
		{
			"mesh":2,
			"name":"floor.001",
			"scale":[
				1.0112049579620361,
				1,
				1
			],
			"translation":[
				-0.0060080718249082565,
				-0.19506248831748962,
				0.02653345838189125
			]
		}
	],
	"meshes":[
		{
			"name":"Cube",
			"primitives":[
				{
					"attributes":{
						"POSITION":0,
						"NORMAL":1
					},
					"indices":2
				}
			]
		},
		{
			"name":"Cube.001",
			"primitives":[
				{
					"attributes":{
						"POSITION":3,
						"NORMAL":4
					},
					"indices":5
				}
			]
		},
		{
			"name":"Cube.003",
			"primitives":[
				{
					"attributes":{
						"POSITION":6,
						"NORMAL":7
					},
					"indices":8
				}
			]
		}
	],
	"accessors":[
		{
			"bufferView":0,
			"componentType":5126,
			"count":1442,
			"max":[
				1.2153595685958862,
				1.2153595685958862,
				1.2153595685958862
			],
			"min":[
				-1.415359616279602,
				-1.2153595685958862,
				-1.415359616279602
			],
			"type":"VEC3"
		},
		{
			"bufferView":1,
			"componentType":5126,
			"count":1442,
			"type":"VEC3"
		},
		{
			"bufferView":2,
			"componentType":5123,
			"count":8640,
			"type":"SCALAR"
		},
		{
			"bufferView":3,
			"componentType":5126,
			"count":866,
			"max":[
				1.2153595685958862,
				0.1000000387430191,
				1.2153595685958862
			],
			"min":[
				-1.2153595685958862,
				-0.1000000387430191,
				-1.2153595685958862
			],
			"type":"VEC3"
		},
		{
			"bufferView":4,
			"componentType":5126,
			"count":866,
			"type":"VEC3"
		},
		{
			"bufferView":5,
			"componentType":5123,
			"count":5184,
			"type":"SCALAR"
		},
		{
			"bufferView":6,
			"componentType":5126,
			"count":24248,
			"max":[
				1.205985426902771,
				0.19996023178100586,
				1.1909924745559692
			],
			"min":[
				-1.225839614868164,
				0.15748795866966248,
				-1.2397758960723877
			],
			"type":"VEC3"
		},
		{
			"bufferView":7,
			"componentType":5126,
			"count":24248,
			"type":"VEC3"
		},
		{
			"bufferView":8,
			"componentType":5123,
			"count":145152,
			"type":"SCALAR"
		}
	],
	"bufferViews":[
		{
			"buffer":0,
			"byteLength":17304,
			"byteOffset":0,
			"target":34962
		},
		{
			"buffer":0,
			"byteLength":17304,
			"byteOffset":17304,
			"target":34962
		},
		{
			"buffer":0,
			"byteLength":17280,
			"byteOffset":34608,
			"target":34963
		},
		{
			"buffer":0,
			"byteLength":10392,
			"byteOffset":51888,
			"target":34962
		},
		{
			"buffer":0,
			"byteLength":10392,
			"byteOffset":62280,
			"target":34962
		},
		{
			"buffer":0,
			"byteLength":10368,
			"byteOffset":72672,
			"target":34963
		},
		{
			"buffer":0,
			"byteLength":290976,
			"byteOffset":83040,
			"target":34962
		},
		{
			"buffer":0,
			"byteLength":290976,
			"byteOffset":374016,
			"target":34962
		},
		{
			"buffer":0,
			"byteLength":290304,
			"byteOffset":664992,
			"target":34963
		}
	],
	"buffers":[
		{
			"byteLength":955296,
			"uri":"data:application/octet-stream;base64,"
		}
	]
}
