{
	"asset":{
		"generator":"Khronos glTF Blender I/O v3.6.27",
		"version":"2.0"
	},
	"scene":0,
	"scenes":[
		{
			"name":"Scene",
			"nodes":[
				0,
				2
			]
		}
	],
	"nodes":[
		{
			"mesh":0,
			"name":"walls.008",
			"rotation":[
				0,
				0.7071068286895752,
				0,
				0.7071068286895752
			],
			"translation":[
				-0.10648103058338165,
				1.0131958723068237,
				1.3109534978866577
			]
		},
		{
			"mesh":1,
			"name":"Sphere.003",
			"rotation":[
				0.5000000596046448,
				0.5,
				-0.49999991059303284,
				0.4999999403953552
			],
			"scale":[
				0.07030163705348969,
				0.050053175538778305,
				0.050053179264068604
			],
			"translation":[
				-0.01643037237226963,
				0.8405206203460693,
				-0.4347432851791382
			]
		},
		{
			"children":[
				1
			],
			"mesh":2,
			"name":"door",
			"rotation":[
				0,
				0.7071068286895752,
				0,
				0.7071068286895752
			],
			"scale":[
				1,
				0.9177076816558838,
				0.7119773626327515
			],
			"translation":[
				0.17797192931175232,
				0.032816410064697266,
				1.135290265083313
			]
		}
	],
	"materials":[
		{
			"doubleSided":true,
			"name":"walls",
			"pbrMetallicRoughness":{
				"baseColorFactor":[
					0.07605445384979248,
					0.3263598680496216,
					0.2909064292907715,
					1
				],
				"metallicFactor":0,
				"roughnessFactor":0.6000000238418579
			}
		},
		{
			"doubleSided":true,
			"name":"Material.004",
			"pbrMetallicRoughness":{
				"baseColorFactor":[
					0.8000000715255737,
					0.37549111247062683,
					0.15542565286159515,
					1
				],
				"metallicFactor":0,
				"roughnessFactor":0.6000000238418579
			}
		},
		{
			"doubleSided":true,
			"name":"wooden lite",
			"pbrMetallicRoughness":{
				"baseColorFactor":[
					0.5488418936729431,
					0.30564501881599426,
					0.09442494064569473,
					1
				],
				"metallicFactor":0,
				"roughnessFactor":0.6000000238418579
			}
		},
		{
			"doubleSided":true,
			"name":"bottom floor",
			"pbrMetallicRoughness":{
				"baseColorFactor":[
					0.6618538498878479,
					0.5964094400405884,
					0.3832313120365143,
					1
				],
				"metallicFactor":0,
				"roughnessFactor":0.6086556315422058
			}
		}
	],
	"meshes":[
		{
			"name":"Cube.053",
			"primitives":[
				{
					"attributes":{
						"POSITION":0,
						"NORMAL":1
					},
					"indices":2,
					"material":0
				}
			]
		},
		{
			"name":"Sphere.002",
			"primitives":[
				{
					"attributes":{
						"POSITION":3,
						"NORMAL":4
					},
					"indices":5,
					"material":1
				}
			]
		},
		{
			"name":"Cube.057",
			"primitives":[
				{
					"attributes":{
						"POSITION":6,
						"NORMAL":7
					},
					"indices":8,
					"material":2
				},
				{
					"attributes":{
						"POSITION":9,
						"NORMAL":10
					},
					"indices":11,
					"material":3
				}
			]
		}
	],
	"accessors":[
		{
			"bufferView":0,
			"componentType":5126,
			"count":2018,
			"max":[
				0.12386944890022278,
				1.2153595685958862,
				1.5834909677505493
			],
			"min":[
				-0.12386897951364517,
				-1.2153596878051758,
				-1.375868797302246
			],
			"type":"VEC3"
		},
		{
			"bufferView":1,
			"componentType":5126,
			"count":2018,
			"type":"VEC3"
		},
		{
			"bufferView":2,
			"componentType":5123,
			"count":12096,
			"type":"SCALAR"
		},
		{
			"bufferView":3,
			"componentType":5126,
			"count":11266,
			"max":[
				0.9498971700668335,
				2.5246427059173584,
				0.9498958587646484
			],
			"min":[
				-0.9498965740203857,
				0.1989424079656601,
				-0.949897825717926
			],
			"type":"VEC3"
		},
		{
			"bufferView":4,
			"componentType":5126,
			"count":11266,
			"type":"VEC3"
		},
		{
			"bufferView":5,
			"componentType":5123,
			"count":67584,
			"type":"SCALAR"
		},
		{
			"bufferView":6,
			"componentType":5126,
			"count":13897,
			"max":[
				0.07875170558691025,
				1.909738540649414,
				0.7537618279457092
			],
			"min":[
				-0.2741594910621643,
				-0.04601210355758667,
				-0.78448885679245
			],
			"type":"VEC3"
		},
		{
			"bufferView":7,
			"componentType":5126,
			"count":13897,
			"type":"VEC3"
		},
		{
			"bufferView":8,
			"componentType":5123,
			"count":82944,
			"type":"SCALAR"
		},
		{
			"bufferView":9,
			"componentType":5126,
			"count":4681,
			"max":[
				0.00024974814732559025,
				1.720281958580017,
				0.5431995391845703
			],
			"min":[
				-0.009477974846959114,
				-0.045966073870658875,
				-0.5739264488220215
			],
			"type":"VEC3"
		},
		{
			"bufferView":10,
			"componentType":5126,
			"count":4681,
			"type":"VEC3"
		},
		{
			"bufferView":11,
			"componentType":5123,
			"count":27648,
			"type":"SCALAR"
		}
	],
	"bufferViews":[
		{
			"buffer":0,
			"byteLength":24216,
			"byteOffset":0,
			"target":34962
		},
		{
			"buffer":0,
			"byteLength":24216,
			"byteOffset":24216,
			"target":34962
		},
		{
			"buffer":0,
			"byteLength":24192,
			"byteOffset":48432,
			"target":34963
		},
		{
			"buffer":0,
			"byteLength":135192,
			"byteOffset":72624,
			"target":34962
		},
		{
			"buffer":0,
			"byteLength":135192,
			"byteOffset":207816,
			"target":34962
		},
		{
			"buffer":0,
			"byteLength":135168,
			"byteOffset":343008,
			"target":34963
		},
		{
			"buffer":0,
			"byteLength":166764,
			"byteOffset":478176,
			"target":34962
		},
		{
			"buffer":0,
			"byteLength":166764,
			"byteOffset":644940,
			"target":34962
		},
		{
			"buffer":0,
			"byteLength":165888,
			"byteOffset":811704,
			"target":34963
		},
		{
			"buffer":0,
			"byteLength":56172,
			"byteOffset":977592,
			"target":34962
		},
		{
			"buffer":0,
			"byteLength":56172,
			"byteOffset":1033764,
			"target":34962
		},
		{
			"buffer":0,
			"byteLength":55296,
			"byteOffset":1089936,
			"target":34963
		}
	],
	"buffers":[
		{
			"byteLength":1145232,
			"uri":"data:application/octet-stream;base64,"
		}
	]
}
